<svg xmlns="http://www.w3.org/2000/svg" width="19" height="19" viewBox="0 0 19 19">
  <g id="treasury" transform="translate(-33 -967)">
    <path id="safe-box_3_" data-name="safe-box (3)" d="M19,3.958v7.917a3.953,3.953,0,0,1-1.583,3.164v1.586a.792.792,0,1,1-1.583,0v-.872a3.955,3.955,0,0,1-.792.08H11.875a.792.792,0,0,1,0-1.583h3.167a2.378,2.378,0,0,0,2.375-2.375h-.792a.792.792,0,0,1,0-1.583h.792V5.542h-.792a.792.792,0,0,1,0-1.583h.792a2.378,2.378,0,0,0-2.375-2.375H3.958A2.378,2.378,0,0,0,1.583,3.958V5.542A.792.792,0,0,1,0,5.542V3.958A3.963,3.963,0,0,1,3.958,0H15.042A3.963,3.963,0,0,1,19,3.958ZM9.5,9.9v6.333C9.5,17.809,7.458,19,4.75,19S0,17.809,0,16.229V9.9C0,8.316,2.043,7.125,4.75,7.125S9.5,8.316,9.5,9.9ZM7.917,12a7.071,7.071,0,0,1-3.167.671A7.071,7.071,0,0,1,1.583,12v1.067c0,.419,1.2,1.188,3.167,1.188s3.167-.769,3.167-1.187ZM1.583,9.9c0,.419,1.2,1.187,3.167,1.187S7.917,10.315,7.917,9.9,6.714,8.708,4.75,8.708,1.583,9.477,1.583,9.9Zm6.333,6.333V15.162a7.071,7.071,0,0,1-3.167.671,7.071,7.071,0,0,1-3.167-.671v1.067c0,.419,1.2,1.188,3.167,1.188S7.917,16.648,7.917,16.229Zm3.483-5.3a.791.791,0,0,0,1.108-.157,4.706,4.706,0,0,0,.951-2.851,4.755,4.755,0,0,0-4.75-4.75,4.706,4.706,0,0,0-2.851.951.792.792,0,1,0,.951,1.266,3.167,3.167,0,0,1,4.434,4.433.791.791,0,0,0,.158,1.108Z" transform="translate(33 967)" fill="#fff"/>
  </g>
</svg>
